<?xml version="1.0" encoding="utf-8"?>
<!-- Svg Vector Icons : http://www.onlinewebfonts.com/icon -->
<!DOCTYPE svg PUBLIC "-//W3C//DTD SVG 1.1//EN" "http://www.w3.org/Graphics/SVG/1.1/DTD/svg11.dtd">
<svg version="1.1" xmlns="http://www.w3.org/2000/svg" xmlns:xlink="http://www.w3.org/1999/xlink" x="0px" y="0px" viewBox="0 0 1000 1000" enable-background="new 0 0 1000 1000" xml:space="preserve">
<metadata> Svg Vector Icons : http://www.onlinewebfonts.com/icon </metadata>
<g><g transform="translate(0.000000,511.000000) scale(0.100000,-0.100000)"><path d="M4016.1,1733.1l-254-23.1l-636.6-409l-636.6-405.7l-372.7-26.4C1476.1,826,608.6,641.2,423.9,509.3C374.4,473,282,344.4,222.6,225.6C127,27.7,113.8-31.7,103.9-335.1c-16.5-376.1,16.5-498.1,151.7-603.6c141.9-112.2,164.9-89.1,164.9,174.8c0,574,412.3,992.9,979.7,992.9c402.4,0,722.4-207.8,887.3-573.9c75.9-168.3,89.1-237.5,79.2-432.1l-9.9-227.6h2216.7h2220l19.8,82.5c39.6,161.6-9.9,2163.9-59.4,2381.6c-26.4,115.4-59.4,217.7-72.5,230.9c-13.2,13.2-105.6,33-211.1,46.2C6226.1,1766.1,4345.9,1762.8,4016.1,1733.1z M4913.3,1462.6c0-181.4-56.1-550.9-92.4-610.2c-26.4-39.6-1919.8-161.6-2002.3-128.6c-69.3,26.4-62.7,135.2,9.9,188c36.3,26.4,214.4,161.6,402.4,303.5c184.7,141.9,382.6,280.4,442,313.4c102.3,56.1,409,89.1,969.8,99l270.5,6.6V1462.6z M6608.8,1515.4c29.7-75.9,23.1-682.8-6.6-732.3c-23.1-29.7-184.7-39.6-702.6-33l-672.9,9.9l-9.9,359.5c-3.3,201.2,0,382.6,6.6,405.7c13.2,33,164.9,42.9,692.7,42.9C6499.9,1568.2,6592.3,1561.6,6608.8,1515.4z M770.2,440c-82.5-280.4-92.4-290.3-306.8-290.3c-112.1,0-201.2,13.2-201.2,29.7c0,108.9,313.4,329.9,471.7,333.2C780.1,512.6,790,496.1,770.2,440z"/><path d="M6876,1594.5c42.9-201.2,82.5-854.3,82.5-1355.7v-560.7l99,135.2c132,184.7,336.5,326.6,557.5,389.2C8162.4,364.2,8772.7-35,8828.7-592.4l19.8-181.4h118.8c66,3.3,237.5,23.1,382.6,49.5c230.9,39.6,277.1,62.6,369.5,161.6c56.1,62.7,122.1,178.1,145.1,257.3c49.5,178.1,46.2,580.5-3.3,844.4l-42.9,204.5l-1388.7,6.6L7040.9,760l-19.8,263.9c-36.3,491.5-62.7,643.2-115.4,643.2C6872.7,1667.1,6862.8,1644,6876,1594.5z M9775.5,473c9.9-79.2,26.4-257.3,36.3-399.1c19.8-257.3,19.8-257.3-56.1-247.4c-92.3,13.2-168.2,158.3-247.4,468.4c-52.8,217.7-52.8,227.6,6.6,270.5c33,26.4,102.2,46.2,151.7,46.2C9749,611.6,9759,598.4,9775.5,473z"/><path d="M1020.9-41.5c-564.1-293.6-567.4-1108.3-3.3-1398.6c409-214.4,880.7-62.7,1101.7,353c95.7,178.1,95.7,508,0,692.7C1901.7,17.8,1426.6,172.9,1020.9-41.5z M1634.5-242.8c181.4-82.5,287-234.2,303.5-445.3c16.5-217.7-49.5-379.3-204.5-498.1c-227.6-171.5-557.5-141.8-742.2,66C796.6-899.2,790-599,971.4-384.6C1139.7-183.4,1387.1-130.6,1634.5-242.8z"/><path d="M7552.2-18.5c-191.3-85.8-287-174.8-382.6-366.1c-161.6-320-79.2-732.3,194.6-966.5c174.8-148.4,313.4-191.3,583.8-174.8c267.2,13.2,445.3,115.4,610.3,349.6c82.5,122.1,99,181.4,108.8,382.6c9.9,194.6,0,267.2-59.4,392.5C8423-11.9,7948,159.6,7552.2-18.5z M8145.9-255.9c168.2-89.1,296.9-296.9,296.9-484.9c0-287-273.8-560.8-560.8-560.8c-188,0-395.8,128.6-484.9,296.9c-122.1,227.6-92.4,451.9,82.5,639.9C7664.3-170.2,7908.4-130.6,8145.9-255.9z"/></g></g>
</svg>