<?xml version="1.0" encoding="utf-8"?>
<!-- Svg Vector Icons : http://www.onlinewebfonts.com/icon -->
<!DOCTYPE svg PUBLIC "-//W3C//DTD SVG 1.1//EN" "http://www.w3.org/Graphics/SVG/1.1/DTD/svg11.dtd">
<svg version="1.1" xmlns="http://www.w3.org/2000/svg" xmlns:xlink="http://www.w3.org/1999/xlink" x="0px" y="0px" viewBox="0 0 1000 1000" enable-background="new 0 0 1000 1000" xml:space="preserve">
<metadata> Svg Vector Icons : http://www.onlinewebfonts.com/icon </metadata>
<g><g transform="translate(0.000000,511.000000) scale(0.100000,-0.100000)"><path d="M4809.2,2347.7c-527.3-117.6-1172.2-395.5-1845.5-798.1c-413.3-245.8-520.2-317.1-769.6-516.6c-71.3-57-199.5-114-281.5-131.8C1727.4,869.1,508.9,356.1,423.4,277.7C156.2,35.4-4.2-1126.1,177.5-1482.3c71.3-138.9,78.4-142.5,260.1-142.5h185.3v313.5c0,352.7,64.1,516.6,292.2,741.1c199.5,199.5,406.2,281.4,723.2,281.4c317.1,0,523.7-81.9,723.2-281.4c228-224.5,292.2-388.4,292.2-741.1v-313.5h2476.2H7606l-10.7,235.2c-17.8,302.8,39.2,495.2,203.1,712.6c252.9,334.9,705.4,477.4,1125.8,352.7c163.9-46.3,249.4-99.8,413.3-263.6c228-228,317.1-445.4,317.1-762.5v-178.1l74.8,96.2c171.1,217.3,217.4,616.4,121.2,1065.3c-28.5,135.4-67.7,370.5-89.1,530.9c-99.8,719.7-413.3,1325.4-858.6,1653.1c-149.6,106.9-174.6,146.1-174.6,245.8c0,106.9-14.3,124.7-131.8,163.9c-349.1,114-755.3,142.5-2148.4,156.8C5308,2397.6,4998,2390.5,4809.2,2347.7z M5878,2062.7c0-110.5-217.3-1247-242.3-1268.4c-35.6-32.1-1079.5-131.8-1920.4-181.7C2685.8,552,2290.3,623.3,2432.8,847.7c71.3,110.5,495.2,388.3,905,591.4c709,352.7,1528.4,570,2497.5,673.4C5856.7,2112.5,5878,2091.2,5878,2062.7z M7153.5,2076.9c356.3-35.6,1175.7-188.8,1207.8-224.4c32-28.5-103.3-513-174.6-627.1c-78.4-131.8-160.3-153.2-1061.7-263.6c-402.6-53.4-791-103.3-862.2-114l-135.4-21.4v644.9v644.9h338.5C6654.7,2116.1,6961.2,2098.3,7153.5,2076.9z M1442.3,381C982.7-28.7,341.4-466.9,231-442c-128.3,25,292.2,641.3,516.6,758.9c131.8,67.7,598.5,192.4,730.4,192.4h106.9L1442.3,381z"/><path d="M1331.9-506.1c-306.4-110.5-545.1-448.9-548.7-776.7c0-513.1,363.4-890.7,858.6-887.1c776.7,7.1,1143.7,940.6,584.3,1482.1C1998.1-466.9,1645.4-395.7,1331.9-506.1z M1787.9-734.2c171-49.9,345.6-195.9,406.2-345.6c160.3-381.2-135.4-826.5-548.7-830.1c-513.1,0-794.5,595-459.6,976.2C1250-858.9,1364-780.5,1442.3-752C1616.9-691.4,1624.1-691.4,1787.9-734.2z"/><path d="M8332.9-499c-206.7-71.3-345.6-192.4-459.6-388.4c-192.4-338.5-131.8-783.8,146.1-1047.5c345.6-324.2,940.6-306.4,1229.2,35.6c320.7,377.7,306.4,840.8-39.2,1182.9C8956.3-463.4,8646.4-385,8332.9-499z M8810.2-748.4C8992-816.1,9081-898,9163-1086.9c171-377.7-121.2-823-541.5-823c-545.1,0-808.8,652-416.9,1022.5C8393.4-709.2,8575.1-666.4,8810.2-748.4z"/></g></g>
</svg>