<?xml version="1.0" encoding="utf-8"?>
<!-- Svg Vector Icons : http://www.onlinewebfonts.com/icon -->
<!DOCTYPE svg PUBLIC "-//W3C//DTD SVG 1.1//EN" "http://www.w3.org/Graphics/SVG/1.1/DTD/svg11.dtd">
<svg version="1.1" xmlns="http://www.w3.org/2000/svg" xmlns:xlink="http://www.w3.org/1999/xlink" x="0px" y="0px" viewBox="0 0 1000 1000" enable-background="new 0 0 1000 1000" xml:space="preserve">
<metadata> Svg Vector Icons : http://www.onlinewebfonts.com/icon </metadata>
<g><g transform="translate(0.000000,511.000000) scale(0.100000,-0.100000)"><path d="M8842.5,1611.3c-427.7-47.1-528.7-70.7-565.8-121.2c-74.1-101-13.4-94.3,616.3,37C9704.7,1698.8,9701.3,1708.9,8842.5,1611.3z"/><path d="M8896.4,1426c-225.6-53.9-316.6-90.9-370.4-158.3c-74.1-84.2-84.2-87.5-612.9-107.8c-296.3-10.1-623-40.4-724.1-67.4c-101-23.6-360.4-94.3-572.5-151.5C5400.8,617.8,4073.9,516.8,3316.2,691.9C2575.3,863.6,1517.8,627.9,750,116C642.2,48.7,453.6-106.3,329-224.1L100-439.7l111.1-212.2c60.6-117.9,107.8-245.8,107.8-289.6c0-57.3,30.3-90.9,111.1-124.6c144.8-60.6,575.9-117.9,889.1-117.9c229,0,249.2,6.7,229,60.6c-101,235.7-124.6,343.5-107.8,532.1c50.5,643.3,687,1050.7,1310,835.2c478.2-161.7,744.2-734.2,575.9-1232.6c-37-107.8-64-195.3-57.2-195.3c3.4,0,47.1,13.5,94.3,33.7c138.1,50.5,821.7,158.3,1468.3,232.4c485,53.9,676.9,60.6,1094.5,37.1c279.5-13.5,764.5-37.1,1084.4-50.5l579.2-23.6L7515.7-773c-50.5,134.7-70.7,255.9-70.7,484.9c-3.4,286.3,3.4,319.9,124.6,559c323.3,660.1,1087.8,946.3,1731,650c114.5-50.5,171.7-64,144.8-33.7c-20.2,26.9-114.5,80.8-205.4,121.2c-90.9,43.8-165,87.6-165,104.4c0,13.5,30.3,104.4,67.4,202.1c37,94.3,64,175.1,57.3,178.5C9196.1,1496.8,9058.1,1466.5,8896.4,1426z M1349.4,244C1177.7,85.7,726.4-150,521-190.4c-111.1-20.2-104.4-13.5,101,134.7c222.3,158.3,781.3,454.6,855.4,454.6C1497.6,395.5,1440.3,328.2,1349.4,244z M692.7-961.7c222.3-53.9,387.3-138.1,212.2-107.8c-57.2,10.1-181.9,27-279.5,40.4c-111.1,13.5-171.8,37.1-171.8,67.4C453.6-904.4,453.6-904.4,692.7-961.7z"/><path d="M3956,1126.3c-212.2-57.3-484.9-151.5-602.8-205.4l-218.9-97.7l151.5-43.8c458-134.7,1448.1-117.9,2367.5,40.4c542.2,90.9,1242.7,252.6,1219.1,276.2c-20.2,23.6-1983.5,141.4-2293.4,141.4C4417.4,1237.5,4222.1,1203.8,3956,1126.3z"/><path d="M8462,826.6c-225.6-64-508.5-262.7-633.1-441.2c-148.2-222.3-208.8-407.5-208.8-676.9c0-485,249.2-862.1,707.2-1070.9c245.8-111.2,666.8-101,919.4,20.2c225.6,107.8,478.2,363.7,579.3,589.3c57.3,124.6,74.1,222.3,74.1,461.4c0,363.7-67.4,535.5-299.7,784.7C9320.8,792.9,8839.2,931,8462,826.6z M9142.3,466.3c178.5-90.9,387.3-340.1,437.8-522c60.6-212.2,23.6-491.7-84.2-673.5C9209.6-1221,8509.1-1288.3,8132-860.6c-151.5,175.1-205.4,323.3-208.8,572.5c-3.3,501.8,431.1,889.1,929.5,835.2C8943.6,537,9074.9,499.9,9142.3,466.3z"/><path d="M2204.8,99.2c-363.7-117.9-575.9-400.8-575.9-761.1c0-441.2,336.8-788,771.2-791.4C3225.2-1456.7,3498-342,2763.9,35.2C2619,109.3,2332.8,143,2204.8,99.2z M2642.6-180.3c387.3-195.3,414.2-683.6,57.3-949.7c-70.7-53.9-144.8-70.7-293-70.7c-222.3,0-333.4,60.6-461.4,252.6c-107.8,154.9-107.8,417.6,0,575.9c80.8,124.6,326.7,266.1,461.4,266.1C2454-106.3,2561.8-139.9,2642.6-180.3z"/></g></g>
</svg>