<?xml version="1.0" encoding="utf-8"?>
<!-- Svg Vector Icons : http://www.onlinewebfonts.com/icon -->
<!DOCTYPE svg PUBLIC "-//W3C//DTD SVG 1.1//EN" "http://www.w3.org/Graphics/SVG/1.1/DTD/svg11.dtd">
<svg version="1.1" xmlns="http://www.w3.org/2000/svg" xmlns:xlink="http://www.w3.org/1999/xlink" x="0px" y="0px" viewBox="0 0 1000 1000" enable-background="new 0 0 1000 1000" xml:space="preserve">
<metadata> Svg Vector Icons : http://www.onlinewebfonts.com/icon </metadata>
<g><g transform="translate(0.000000,511.000000) scale(0.100000,-0.100000)"><path d="M4965.9,1783.2c-508.8-29.1-810.1-87.5-810.1-155.5c0-48.6-1335.1-845.8-1419.3-845.8c-38.9,0-55.1,16.2-45.4,42.1c13,35.6-19.4,38.9-165.3,19.4c-103.7-12.9-324-42.1-492.6-61.6c-661.1-81-1455-307.9-1655.9-476.4c-51.9-45.4-126.4-139.3-162-210.6C137.5-57.4,72.7-381.5,111.6-420.4c16.2-16.2,149.1-38.8,294.9-51.8L669-491.6l-48.6-94c-55.1-106.9-158.8-155.5-340.3-155.5c-68.1,0-126.4-16.2-126.4-35.7c0-64.8,278.7-145.8,706.4-204.1l139.4-19.4l-19.4,110.2c-29.2,152.3,61.6,479.6,178.2,648.1c259.2,379.1,803.6,512,1218.4,301.4c314.3-162,499-447.2,525-810.1l16.2-223.6l262.5,19.4c145.8,9.7,832.8,25.9,1526.3,35.7c696.7,9.7,1464.7,25.9,1711,35.6l444,22.7v119.9c0,353.2,311.1,758.3,664.3,862c476.4,136.1,962.4-77.8,1169.8-521.7c42.1-87.5,77.8-217.1,77.8-281.9c0-145.8-32.4-142.6,525-64.8c453.7,64.8,554.1,113.4,537.9,262.5c-3.2,45.4,13,165.3,35.7,265.7c38.9,162,38.9,194.4-9.7,288.4c-29.1,58.3-51.8,149.1-51.8,200.9c0,84.2-6.5,90.7-142.6,90.7c-194.4,0-337,32.4-353.2,81c-9.7,19.4,25.9,106.9,81,187.9c84.2,132.9,113.4,152.3,207.4,152.3c61.6,0,110.2,12.9,110.2,32.4c0,81-178.2,139.3-495.8,168.5c-418,35.6-486.1,58.3-874.9,275.4c-382.4,217.1-904.1,405.1-1318.9,476.3C6641.2,1799.4,5626.9,1825.3,4965.9,1783.2z M6595.8,1604.9c269-22.7,249.5,6.5,281.9-440.7l19.4-285.2h-745.3h-748.6l16.2,204.1c38.9,463.4,48.6,521.7,87.5,547.7C5545.9,1660,6093.5,1643.8,6595.8,1604.9z M5241.3,1579c0-45.4-132.8-709.6-142.6-722.6c-9.7-9.7-1743.4-106.9-1882.7-103.7h-97.2l113.4,100.5c366.2,317.6,985.1,635.1,1419.3,722.6C4952.9,1634.1,5241.3,1637.3,5241.3,1579z M7428.6,1365.2c110.2-51.9,230.1-129.6,269-171.7l71.3-74.6L7684.6,999l-81-119.9h-256h-259.2v90.7c0,48.6-9.7,187.9-22.7,311.1l-19.4,223.6l94-22.7C7192.1,1468.9,7321.7,1417,7428.6,1365.2z M937.9,201.8c51.8-19.4,48.6-32.4-29.2-142.6L824.5-60.6H519.9H215.3l58.3,100.4C400,253.7,429.2,269.9,669,243.9C785.6,231,908.8,211.5,937.9,201.8z"/><path d="M1563.4-119c-495.8-269-541.2-981.9-81-1318.9c398.6-294.9,994.8-123.1,1192.5,340.3c64.8,152.3,61.6,440.7-6.5,599.5C2542-196.8,2276.3-28.2,1936-28.2C1767.5-28.2,1693-47.7,1563.4-119z M2185.5-307c278.7-132.8,385.6-495.8,223.6-771.2c-90.7-155.5-291.6-278.7-460.2-278.7c-116.7,0-333.8,97.2-408.3,181.4c-184.7,210.6-191.2,515.3-16.2,716.2C1699.5-258.3,1955.5-200,2185.5-307z"/><path d="M7509.6-80.1c-145.8-64.8-311.1-223.6-398.6-385.6c-94-178.2-94-499.1,3.2-683.8c233.3-453.7,823.1-573.5,1205.5-246.3C8883.6-916.2,8556.3-25,7820.7-28.2C7710.6-31.5,7571.2-54.2,7509.6-80.1z M8037.8-300.4c307.8-126.4,424.5-554.1,226.8-826.3c-97.2-136.1-327.3-236.6-489.3-220.4c-175,19.4-369.4,149-437.5,291.6c-68.1,139.3-71.3,382.4-9.7,502.3C7457.8-300.4,7772.1-187,8037.8-300.4z"/></g></g>
</svg>