<?xml version="1.0" encoding="utf-8"?>
<!-- Svg Vector Icons : http://www.onlinewebfonts.com/icon -->
<!DOCTYPE svg PUBLIC "-//W3C//DTD SVG 1.1//EN" "http://www.w3.org/Graphics/SVG/1.1/DTD/svg11.dtd">
<svg version="1.1" xmlns="http://www.w3.org/2000/svg" xmlns:xlink="http://www.w3.org/1999/xlink" x="0px" y="0px" viewBox="0 0 1000 1000" enable-background="new 0 0 1000 1000" xml:space="preserve">
<metadata> Svg Vector Icons : http://www.onlinewebfonts.com/icon </metadata>
<g><g transform="translate(0.000000,511.000000) scale(0.100000,-0.100000)"><path d="M5472.8,1990.7c-744.9-28.1-1001.4-66.8-1405.5-196.8c-365.4-123-1011.9-460.3-1384.4-730.8c-274.1-193.2-358.4-235.4-632.5-302.2C1291.5,578.2,694.2,304.1,434.2,26.6c-87.8-94.9-161.6-203.8-161.6-238.9s-38.7-98.4-87.8-140.5c-98.4-87.8-112.4-207.3-35.1-309.2c28.1-38.6,49.2-144,52.7-252.9v-186.2l158.1-70.3c84.3-38.6,256.5-77.3,376-91.3l221.4-17.6v291.6c0,253,14.1,323.3,98.4,495.4c172.2,347.8,481.4,555.2,871.4,583.2c340.8,24.6,558.7-59.7,808.1-305.7c246-245.9,326.8-460.3,305.7-815.2l-14.1-242.4h2080.1h2080.1l-35.1,130c-119.4,432.2,200.3,994.4,660.6,1170C8484,276,9232.4-205.4,9232.4-894c0-238.9,21.1-246,340.8-133.5c309.2,108.9,326.8,137,326.8,488.4c0,481.4-63.2,1064.6-144,1324.7c-137.1,449.7-428.7,857.3-713.3,994.4C8607,1994.2,7352.6,2068,5472.8,1990.7z M5153,1793.9c-3.5-35.1-59.7-291.6-133.5-572.7L4893,711.7L3838.9,652c-579.8-31.6-1141.9-56.2-1247.3-59.7h-193.3L2574,750.4c576.2,520,1479.3,969.8,2143.3,1064.6C5075.8,1867.7,5156.6,1860.7,5153,1793.9z M8617.5,1793.9l270.6-21.1l105.4-161.6c87.8-140.5,274.1-643,274.1-744.9c0-17.6-330.3-31.6-825.7-31.6h-825.7v168.6c-3.5,91.4-24.6,291.6-52.7,446.2s-52.7,302.2-52.7,326.8C7510.7,1825.5,8136.1,1836.1,8617.5,1793.9z M7176.9,1372.3c10.5-210.8,28.1-439.2,38.6-509.5l21.1-133.5h-453.3c-246,0-653.5-10.5-899.5-24.6l-453.3-21.1l24.6,435.7c10.5,238.9,31.6,477.9,38.6,534.1l21.1,94.9h818.7h818.7L7176.9,1372.3z M1186.1,311.2c0-77.3-238.9-298.7-411.1-383c-98.4-45.7-126.5-49.2-203.8-7c-49.2,24.6-87.8,56.2-87.8,66.7c3.5,10.6,115.9,105.4,253,207.3C1006.9,392,1186.1,437.7,1186.1,311.2z"/><path d="M1611.3-205.4c-319.7-161.6-484.9-463.8-449.8-829.2c77.3-850.3,1236.8-1054.1,1609.3-284.6c94.9,196.7,101.9,491.9,17.6,695.7C2595.1-170.2,2064.5,19.5,1611.3-205.4z M2275.4-430.2c186.2-94.9,291.6-253,309.2-474.3c45.7-562.2-643-871.4-1008.4-456.8c-151.1,172.1-200.3,365.4-147.6,555.1C1541-433.7,1934.5-258.1,2275.4-430.2z"/><path d="M7802.4-201.8c-505.9-253-621.9-927.6-228.4-1335.2c175.7-179.2,365.4-263.5,614.9-263.5c238.9,0,386.5,56.2,565.7,210.8c196.8,172.1,277.6,361.9,281.1,632.5c0,260-73.8,439.2-267.1,621.9C8519.1-96.4,8125.6-40.2,7802.4-201.8z M8459.4-430.2c193.3-98.4,291.6-253,309.2-488.4c14.1-235.4-63.2-400.5-238.9-520c-442.7-302.2-1050.6,108.9-913.6,621.9C7718-437.2,8115.1-254.5,8459.4-430.2z"/></g></g>
</svg>